<mxfile host="Electron" modified="2023-11-20T14:49:08.344Z" agent="Mozilla/5.0 (Windows NT 10.0; Win64; x64) AppleWebKit/537.36 (KHTML, like Gecko) draw.io/22.1.2 Chrome/114.0.5735.289 Electron/25.9.4 Safari/537.36" etag="HtWUV3Cj--WQ61x4ttia" version="22.1.2" type="device">
  <diagram name="Page-1" id="dtVfWvhidsCimCKAd8vo">
    <mxGraphModel dx="864" dy="526" grid="1" gridSize="10" guides="1" tooltips="1" connect="1" arrows="1" fold="1" page="1" pageScale="1" pageWidth="850" pageHeight="1100" math="0" shadow="0">
      <root>
        <mxCell id="0" />
        <mxCell id="1" parent="0" />
        <mxCell id="XhDBtA3QzxGK7JM2RrdJ-4" style="edgeStyle=orthogonalEdgeStyle;rounded=0;orthogonalLoop=1;jettySize=auto;html=1;entryX=0.5;entryY=0;entryDx=0;entryDy=0;" edge="1" parent="1" source="XhDBtA3QzxGK7JM2RrdJ-1" target="XhDBtA3QzxGK7JM2RrdJ-2">
          <mxGeometry relative="1" as="geometry" />
        </mxCell>
        <mxCell id="XhDBtA3QzxGK7JM2RrdJ-1" value="Mulai" style="rounded=1;whiteSpace=wrap;html=1;arcSize=50;" vertex="1" parent="1">
          <mxGeometry x="320" y="120" width="120" height="40" as="geometry" />
        </mxCell>
        <mxCell id="XhDBtA3QzxGK7JM2RrdJ-5" style="edgeStyle=orthogonalEdgeStyle;rounded=0;orthogonalLoop=1;jettySize=auto;html=1;entryX=0.5;entryY=0;entryDx=0;entryDy=0;" edge="1" parent="1" source="XhDBtA3QzxGK7JM2RrdJ-2" target="XhDBtA3QzxGK7JM2RrdJ-3">
          <mxGeometry relative="1" as="geometry" />
        </mxCell>
        <mxCell id="XhDBtA3QzxGK7JM2RrdJ-2" value="Home" style="rounded=0;whiteSpace=wrap;html=1;" vertex="1" parent="1">
          <mxGeometry x="320" y="200" width="120" height="40" as="geometry" />
        </mxCell>
        <mxCell id="XhDBtA3QzxGK7JM2RrdJ-16" style="edgeStyle=orthogonalEdgeStyle;rounded=0;orthogonalLoop=1;jettySize=auto;html=1;entryX=0.5;entryY=0;entryDx=0;entryDy=0;" edge="1" parent="1" source="XhDBtA3QzxGK7JM2RrdJ-3" target="XhDBtA3QzxGK7JM2RrdJ-6">
          <mxGeometry relative="1" as="geometry" />
        </mxCell>
        <mxCell id="XhDBtA3QzxGK7JM2RrdJ-3" value="Pulsa" style="rounded=0;whiteSpace=wrap;html=1;" vertex="1" parent="1">
          <mxGeometry x="320" y="280" width="120" height="40" as="geometry" />
        </mxCell>
        <mxCell id="XhDBtA3QzxGK7JM2RrdJ-17" style="edgeStyle=orthogonalEdgeStyle;rounded=0;orthogonalLoop=1;jettySize=auto;html=1;entryX=0.5;entryY=0;entryDx=0;entryDy=0;" edge="1" parent="1" source="XhDBtA3QzxGK7JM2RrdJ-6" target="XhDBtA3QzxGK7JM2RrdJ-7">
          <mxGeometry relative="1" as="geometry" />
        </mxCell>
        <mxCell id="XhDBtA3QzxGK7JM2RrdJ-6" value="Proses Transaksi" style="shape=parallelogram;perimeter=parallelogramPerimeter;whiteSpace=wrap;html=1;fixedSize=1;" vertex="1" parent="1">
          <mxGeometry x="320" y="360" width="120" height="40" as="geometry" />
        </mxCell>
        <mxCell id="XhDBtA3QzxGK7JM2RrdJ-18" style="edgeStyle=orthogonalEdgeStyle;rounded=0;orthogonalLoop=1;jettySize=auto;html=1;" edge="1" parent="1" source="XhDBtA3QzxGK7JM2RrdJ-7" target="XhDBtA3QzxGK7JM2RrdJ-8">
          <mxGeometry relative="1" as="geometry" />
        </mxCell>
        <mxCell id="XhDBtA3QzxGK7JM2RrdJ-7" value="Cek Data Transaksi" style="rounded=0;whiteSpace=wrap;html=1;" vertex="1" parent="1">
          <mxGeometry x="320" y="440" width="120" height="40" as="geometry" />
        </mxCell>
        <mxCell id="XhDBtA3QzxGK7JM2RrdJ-11" style="edgeStyle=orthogonalEdgeStyle;rounded=0;orthogonalLoop=1;jettySize=auto;html=1;entryX=0;entryY=0.5;entryDx=0;entryDy=0;fillColor=#008a00;strokeColor=#005700;" edge="1" parent="1" source="XhDBtA3QzxGK7JM2RrdJ-8" target="XhDBtA3QzxGK7JM2RrdJ-10">
          <mxGeometry relative="1" as="geometry" />
        </mxCell>
        <mxCell id="XhDBtA3QzxGK7JM2RrdJ-12" value="Yes" style="edgeLabel;html=1;align=center;verticalAlign=middle;resizable=0;points=[];" vertex="1" connectable="0" parent="XhDBtA3QzxGK7JM2RrdJ-11">
          <mxGeometry y="1" relative="1" as="geometry">
            <mxPoint as="offset" />
          </mxGeometry>
        </mxCell>
        <mxCell id="XhDBtA3QzxGK7JM2RrdJ-13" style="edgeStyle=orthogonalEdgeStyle;rounded=0;orthogonalLoop=1;jettySize=auto;html=1;fillColor=#e51400;strokeColor=#B20000;" edge="1" parent="1" source="XhDBtA3QzxGK7JM2RrdJ-8" target="XhDBtA3QzxGK7JM2RrdJ-9">
          <mxGeometry relative="1" as="geometry" />
        </mxCell>
        <mxCell id="XhDBtA3QzxGK7JM2RrdJ-14" value="NO" style="edgeLabel;html=1;align=center;verticalAlign=middle;resizable=0;points=[];" vertex="1" connectable="0" parent="XhDBtA3QzxGK7JM2RrdJ-13">
          <mxGeometry x="0.1667" y="-3" relative="1" as="geometry">
            <mxPoint as="offset" />
          </mxGeometry>
        </mxCell>
        <mxCell id="XhDBtA3QzxGK7JM2RrdJ-8" value="Data Sesuai?" style="rhombus;whiteSpace=wrap;html=1;" vertex="1" parent="1">
          <mxGeometry x="340" y="500" width="80" height="80" as="geometry" />
        </mxCell>
        <mxCell id="XhDBtA3QzxGK7JM2RrdJ-15" style="edgeStyle=orthogonalEdgeStyle;rounded=0;orthogonalLoop=1;jettySize=auto;html=1;exitX=0.5;exitY=0;exitDx=0;exitDy=0;entryX=0;entryY=0.5;entryDx=0;entryDy=0;" edge="1" parent="1" source="XhDBtA3QzxGK7JM2RrdJ-9" target="XhDBtA3QzxGK7JM2RrdJ-3">
          <mxGeometry relative="1" as="geometry" />
        </mxCell>
        <mxCell id="XhDBtA3QzxGK7JM2RrdJ-9" value="Data Bermasalah" style="rounded=0;whiteSpace=wrap;html=1;" vertex="1" parent="1">
          <mxGeometry x="160" y="520" width="120" height="40" as="geometry" />
        </mxCell>
        <mxCell id="XhDBtA3QzxGK7JM2RrdJ-20" style="edgeStyle=orthogonalEdgeStyle;rounded=0;orthogonalLoop=1;jettySize=auto;html=1;" edge="1" parent="1" source="XhDBtA3QzxGK7JM2RrdJ-10" target="XhDBtA3QzxGK7JM2RrdJ-19">
          <mxGeometry relative="1" as="geometry" />
        </mxCell>
        <mxCell id="XhDBtA3QzxGK7JM2RrdJ-10" value="Verifikasi PIN" style="shape=parallelogram;perimeter=parallelogramPerimeter;whiteSpace=wrap;html=1;fixedSize=1;" vertex="1" parent="1">
          <mxGeometry x="480" y="520" width="120" height="40" as="geometry" />
        </mxCell>
        <mxCell id="XhDBtA3QzxGK7JM2RrdJ-22" style="edgeStyle=orthogonalEdgeStyle;rounded=0;orthogonalLoop=1;jettySize=auto;html=1;" edge="1" parent="1" source="XhDBtA3QzxGK7JM2RrdJ-19" target="XhDBtA3QzxGK7JM2RrdJ-21">
          <mxGeometry relative="1" as="geometry" />
        </mxCell>
        <mxCell id="XhDBtA3QzxGK7JM2RrdJ-19" value="Pulsa Berhasil dibeli" style="rounded=0;whiteSpace=wrap;html=1;" vertex="1" parent="1">
          <mxGeometry x="480" y="600" width="120" height="40" as="geometry" />
        </mxCell>
        <mxCell id="XhDBtA3QzxGK7JM2RrdJ-21" value="Selesai" style="rounded=1;whiteSpace=wrap;html=1;arcSize=50;" vertex="1" parent="1">
          <mxGeometry x="480" y="680" width="120" height="40" as="geometry" />
        </mxCell>
      </root>
    </mxGraphModel>
  </diagram>
</mxfile>
